# xmcd CD database file
#
# Track frame offsets:
#	150
#	22862
#	41350
#	59612
#	77500
#	86200
#	103675
#	127062
#	145725
#	165600
#
# Disc length: 2541 seconds
#
# Revision: 0
# Processed by: cddbd v1.5.1PL0 Copyright (c) Steve Scherf et al.
# Submitted via: CDex 1.51
#
DISCID=7d09eb0a
DTITLE=山本潤子 - BEST OF 山本潤子
DYEAR=1900
DGENRE=JPop
TTITLE0=フィーリング
TTITLE1=中央フリーウェイ
TTITLE2=海を見ていた午後
TTITLE3=卒業写真
TTITLE4=小さな願い
TTITLE5=スカイレストラン
TTITLE6=緑の季節
TTITLE7=赤い花 白い花
TTITLE8=風船
TTITLE9=翼をください
EXTD=
EXTT0=
EXTT1=
EXTT2=
EXTT3=
EXTT4=
EXTT5=
EXTT6=
EXTT7=
EXTT8=
EXTT9=
PLAYORDER=
